<svg xmlns="http://www.w3.org/2000/svg" width="46.212" height="35.831" viewBox="0 0 46.212 35.831">
  <path id="mail" d="M42.608,59.882H5.6a4.609,4.609,0,0,0-4.6,4.6V91.109a4.609,4.609,0,0,0,4.6,4.6h37a4.609,4.609,0,0,0,4.6-4.6V64.486A4.609,4.609,0,0,0,42.608,59.882Zm0,3.069a1.526,1.526,0,0,1,.588.114L31.114,74.924l-6.56,5.947L5.016,63.07a1.527,1.527,0,0,1,.588-.114Zm0,29.693H5.6a1.536,1.536,0,0,1-1.535-1.535v-24.8L23.548,84.062a1.537,1.537,0,0,0,2.011,0L44.142,66.313v24.8A1.536,1.536,0,0,1,42.608,92.644Z" transform="translate(-1 -59.882)" fill="#fff"/>
</svg>
