<svg xmlns="http://www.w3.org/2000/svg" width="36.569" height="42.455" viewBox="0 0 36.569 42.455">
  <path id="github" d="M10.149,1.251A1.446,1.446,0,0,0,8.763,2.732V10.1c-1.778,1.911-3.746,4.308-3.746,8.423,0,4.2,1.062,7.168,2.986,9.193a15.44,15.44,0,0,0,6.031,3.521l-1.159,3.669c-2.718.543-3.917-.012-4.99-1.141C6.7,32.522,5.68,30.3,3.3,29.053a1.343,1.343,0,0,0-1.432.053,1.507,1.507,0,0,0-.643,1.351A1.481,1.481,0,0,0,2.046,31.7c1.371.723,2.223,2.454,3.849,4.168,1.347,1.422,3.634,2.188,6.614,1.909v4.447a1.444,1.444,0,0,0,1.4,1.481H28.9a1.444,1.444,0,0,0,1.4-1.481V36.3a1.554,1.554,0,0,0-.075-.466l-1.45-4.591a15.464,15.464,0,0,0,6.031-3.521c1.924-2.026,2.986-5,2.986-9.193,0-4.115-1.969-6.512-3.746-8.423V2.732a1.494,1.494,0,0,0-.741-1.307,1.344,1.344,0,0,0-1.443.073L26.718,5.115a12.688,12.688,0,0,0-10.624,0L10.947,1.5A1.353,1.353,0,0,0,10.149,1.251ZM11.572,5.5l3.435,2.415A1.343,1.343,0,0,0,16.416,8,9.911,9.911,0,0,1,26.4,8,1.343,1.343,0,0,0,27.8,7.915L31.239,5.5v5.13a1.523,1.523,0,0,0,.41,1.048c1.873,1.975,3.336,3.394,3.336,6.85,0,3.7-.811,5.667-2.165,7.1S29.347,28,26.583,28.972a1.5,1.5,0,0,0-.89,1.87l1.8,5.7v4.2H15.318v-4.2l1.8-5.7a1.5,1.5,0,0,0-.888-1.87c-2.765-.971-4.881-1.919-6.237-3.347s-2.165-3.394-2.165-7.1c0-3.455,1.463-4.875,3.336-6.85a1.523,1.523,0,0,0,.41-1.048Z" transform="translate(-1.226 -1.249)" fill="#fff"/>
</svg>
