<svg xmlns="http://www.w3.org/2000/svg" width="38.819" height="44.445" viewBox="0 0 38.819 44.445">
  <path id="github" d="M7.793,8a1.407,1.407,0,0,0-.967.44,1.39,1.39,0,0,0-.378.988v7.105a14.062,14.062,0,0,0-3.634,9.226c0,4.05,1.03,6.913,2.9,8.865a15,15,0,0,0,5.851,3.4l-1.124,3.538c-2.637.524-3.8-.011-4.841-1.1-1.15-1.2-3.27-4.341-5.579-5.544a1.309,1.309,0,0,0-.7-.174,1.312,1.312,0,0,0-.687.225,1.456,1.456,0,0,0-.486.569A1.445,1.445,0,0,0-2,36.269a1.424,1.424,0,0,0,.236.706,1.434,1.434,0,0,0,.561.492c1.33.7,3.287,3.366,4.865,5.019,1.307,1.371,3.526,2.11,6.417,1.841v6.689a1.387,1.387,0,0,0,.382.993,1.4,1.4,0,0,0,.976.435H28.192a1.405,1.405,0,0,0,.976-.435,1.386,1.386,0,0,0,.382-.993V42.9a1.5,1.5,0,0,0-.073-.449l-1.407-4.427a15.022,15.022,0,0,0,5.852-3.4c1.867-1.954,2.9-4.822,2.9-8.865a13.766,13.766,0,0,0-.842-4.594,13.594,13.594,0,0,0-2.793-4.632V9.43a1.438,1.438,0,0,0-.719-1.26,1.31,1.31,0,0,0-1.4.07l-4.991,3.488a17.978,17.978,0,0,0-12.514,0L8.567,8.242A1.318,1.318,0,0,0,7.793,8Zm1.381,4.1,3.333,2.329a1.31,1.31,0,0,0,1.367.082,14.24,14.24,0,0,1,11.893,0,1.311,1.311,0,0,0,1.358-.082L30.461,12.1v4.947a5.682,5.682,0,0,0,.4,2.114c1.817,1.9,3.237,3.273,3.237,6.606,0,3.568-.787,5.465-2.1,6.847s-3.37,2.288-6.051,3.225a1.444,1.444,0,0,0-.864,1.8l1.746,5.5v6.451H12.808V43.137l1.746-5.5a1.444,1.444,0,0,0-.862-1.8C11.01,34.9,8.957,33.987,7.641,32.61s-2.1-3.273-2.1-6.847c0-3.332,1.419-4.7,3.237-6.606a5.683,5.683,0,0,0,.4-2.114Z" transform="translate(2 -8)" fill="#fff"/>
</svg>
