<svg xmlns="http://www.w3.org/2000/svg" width="42.792" height="38.179" viewBox="0 0 42.792 38.179">
  <path id="instagram" d="M10.7,2.25a9.39,9.39,0,0,0-9.454,9.3V31.129a9.39,9.39,0,0,0,9.454,9.3H34.588a9.39,9.39,0,0,0,9.454-9.3V11.55a9.39,9.39,0,0,0-9.454-9.3Zm0,2.937H34.588a6.478,6.478,0,0,1,4.588,1.85,6.266,6.266,0,0,1,1.881,4.513V31.129a6.266,6.266,0,0,1-1.881,4.513,6.478,6.478,0,0,1-4.588,1.85H10.7a6.478,6.478,0,0,1-4.588-1.85,6.266,6.266,0,0,1-1.881-4.513V11.55A6.266,6.266,0,0,1,6.117,7.037,6.478,6.478,0,0,1,10.7,5.187ZM34.588,8.613a1.958,1.958,0,1,0,1.99,1.958A1.99,1.99,0,0,0,34.588,8.613ZM22.646,11.061A10.389,10.389,0,0,0,12.2,21.34a10.451,10.451,0,0,0,20.9,0A10.389,10.389,0,0,0,22.646,11.061Zm0,2.937a7.343,7.343,0,1,1-7.464,7.342A7.381,7.381,0,0,1,22.646,14Z" transform="translate(-1.25 -2.25)" fill="#fff"/>
</svg>
