<svg xmlns="http://www.w3.org/2000/svg" width="48.212" height="36.831" viewBox="0 0 48.212 36.831">
  <path id="mail" d="M43.608,59.882H4.6a4.609,4.609,0,0,0-4.6,4.6V92.109a4.609,4.609,0,0,0,4.6,4.6h39a4.609,4.609,0,0,0,4.6-4.6V64.486A4.609,4.609,0,0,0,43.608,59.882Zm0,3.069a1.526,1.526,0,0,1,.588.114L31.114,74.924l-6.56,5.947L4.016,63.07a1.527,1.527,0,0,1,.588-.114Zm0,30.693H4.6a1.536,1.536,0,0,1-1.535-1.535v-25.8L23.548,84.062a1.537,1.537,0,0,0,2.011,0L45.142,66.313v25.8A1.536,1.536,0,0,1,43.608,93.644Z" transform="translate(0 -59.882)" fill="#fff"/>
</svg>
