<svg xmlns="http://www.w3.org/2000/svg" width="43.058" height="32.294" viewBox="0 0 43.058 32.294">
  <path id="envelope" d="M39.022,59.882H4.037A4.041,4.041,0,0,0,0,63.919v24.22a4.041,4.041,0,0,0,4.037,4.037H39.022a4.041,4.041,0,0,0,4.037-4.037V63.919A4.041,4.041,0,0,0,39.022,59.882Zm0,2.691a1.338,1.338,0,0,1,.516.1L21.529,78.285,3.521,62.677a1.339,1.339,0,0,1,.516-.1Zm0,26.912H4.037a1.347,1.347,0,0,1-1.346-1.346V65.521L20.647,81.083a1.348,1.348,0,0,0,1.763,0L40.367,65.521V88.139A1.347,1.347,0,0,1,39.022,89.485Z" transform="translate(0 -59.882)" fill="#fff"/>
</svg>
