<svg xmlns="http://www.w3.org/2000/svg" width="86.743" height="65.038" viewBox="0 0 86.743 65.038">
  <path id="medium" data-name="medium" d="M1.223,8.022l9.386,6.173V53.469l-9.8,9.671a2.714,2.714,0,0,0,1.9,4.641H23.923a2.714,2.714,0,0,0,1.9-4.641l-9.8-9.671V24.874C26.077,46.255,35.875,67.062,35.64,66.588a2.717,2.717,0,0,0,4.973-.271l0-.007a.013.013,0,0,0,0-.007c2.349-6.48,7.387-20.376,7.066-19.495.181-.5,8.75-24.959,8.884-25.339V56.791l-6.292,6.379a2.713,2.713,0,0,0,1.93,4.615H84.03a2.711,2.711,0,0,0,1.937-4.6L79.92,56.989l-.242-43.127,6.256-6.173a2.714,2.714,0,0,0-1.9-4.641c-2.537,0,9.2,0-24.829.014-3.462.1-2.291,3.213-14.406,35.317L29.941,4.664a2.717,2.717,0,0,0-2.483-1.619H2.712A2.714,2.714,0,0,0,1.223,8.022ZM9.315,62.364l4-3.95,4,3.95ZM61.991,8.47H77.427c-1.731,1.934-3.184,2.5-3.177,4.283l.257,45.361c.007,1.72,1.413,2.324,3.086,4.247h-18.9c1.868-2.121,3.3-2.7,3.3-4.46V8.47Zm-36.3,0L42.149,45.822,37.718,58.28C15.4,10.877,16.182,10.132,11.765,8.47Z" transform="translate(0.001 -3.045)" fill="#fff"/>
</svg>
