<svg xmlns="http://www.w3.org/2000/svg" width="43.04" height="34.954" viewBox="0 0 43.04 34.954">
  <path id="twitter" d="M30.338,3.308a9.3,9.3,0,0,0-1.373.188c-3.728.8-6.845,4.114-7.449,9.505-5.523-.244-12.422-2.074-17.7-7.351A1.5,1.5,0,0,0,1.25,6.713c0,5.1.48,10.752,2.366,15.335A13.221,13.221,0,0,0,9.61,28.871L2.279,31.317a1.5,1.5,0,0,0-.2,2.763c8.188,4.1,12.684,4.164,16.688,4.164,10.61,0,16.706-6.536,19.859-12.84a37.246,37.246,0,0,0,3.617-12.31l1.97-5.906a1.5,1.5,0,0,0-2.1-1.816L38.9,6.984a10.865,10.865,0,0,0-8.564-3.676Zm.35,2.979a8.01,8.01,0,0,1,6.847,3.261,1.5,1.5,0,0,0,1.922.508l.765-.382-.857,2.572a1.5,1.5,0,0,0-.074.346,35.494,35.494,0,0,1-3.347,11.465c-2.853,5.708-7.768,11.183-17.177,11.183a30.332,30.332,0,0,1-11.519-2.42l7.988-2.663a1.5,1.5,0,0,0-.472-2.925c-4.4,0-6.755-2.4-8.372-6.326C5.126,17.832,4.655,13.878,4.457,9.95a30.773,30.773,0,0,0,18.314,6.272,1.5,1.5,0,0,0,1.5-1.5c0-5.505,2.444-7.677,5.317-8.294a6.846,6.846,0,0,1,1.1-.14Z" transform="translate(-1.25 -3.29)" fill="#fff"/>
</svg>
