<svg xmlns="http://www.w3.org/2000/svg" width="51.896" height="37.414" viewBox="0 0 51.896 37.414">
  <path id="youtube" d="M10.3,4.25a7.266,7.266,0,0,0-5.569,2.6,13.283,13.283,0,0,0-2.527,5.407,45.107,45.107,0,0,0-.956,10.7,45.107,45.107,0,0,0,.956,10.7,13.283,13.283,0,0,0,2.527,5.407,7.258,7.258,0,0,0,5.569,2.6H44.095a7.266,7.266,0,0,0,5.569-2.6,13.283,13.283,0,0,0,2.527-5.407,45.107,45.107,0,0,0,.956-10.7,45.107,45.107,0,0,0-.956-10.7,13.283,13.283,0,0,0-2.527-5.407,7.258,7.258,0,0,0-5.569-2.6Zm0,3.621H44.095a3.27,3.27,0,0,1,2.8,1.32,10.042,10.042,0,0,1,1.772,3.947,43.333,43.333,0,0,1,.854,9.819,43.333,43.333,0,0,1-.854,9.819A10.077,10.077,0,0,1,46.9,36.723a3.273,3.273,0,0,1-2.8,1.32H10.3a3.27,3.27,0,0,1-2.8-1.32,10.042,10.042,0,0,1-1.772-3.947,43.333,43.333,0,0,1-.854-9.819,43.333,43.333,0,0,1,.854-9.819A10.077,10.077,0,0,1,7.5,9.191,3.273,3.273,0,0,1,10.3,7.871Zm9.631,3.621a1.81,1.81,0,0,0-1.786,1.81v19.31a1.81,1.81,0,0,0,2.814,1.509l14.483-9.655a1.81,1.81,0,0,0,0-3.017L20.961,11.793a1.81,1.81,0,0,0-1.028-.3Zm1.834,5.194,9.4,6.271-9.4,6.271Z" transform="translate(-1.25 -4.25)" fill="#fff"/>
</svg>
