<svg xmlns="http://www.w3.org/2000/svg" width="46.393" height="46.393" viewBox="0 0 46.393 46.393">
  <path id="linkedin" d="M7.184,1.25a5.934,5.934,0,1,0,5.934,5.934A5.958,5.958,0,0,0,7.184,1.25Zm0,3.237a2.7,2.7,0,1,1-2.7,2.7A2.671,2.671,0,0,1,7.184,4.487Zm0,11.868A5.956,5.956,0,0,0,1.25,22.288v19.42a5.934,5.934,0,0,0,11.868,0V22.288A5.956,5.956,0,0,0,7.184,16.355Zm21.578,0a10.176,10.176,0,0,0-7.08,3.17,10.176,10.176,0,0,0-3.17,7.08v15.1a5.936,5.936,0,0,0,11.868,0V30.92a3.056,3.056,0,0,1,2.7-2.7,3.056,3.056,0,0,1,2.7,2.7V41.709a5.936,5.936,0,0,0,11.868,0V26.6a10.176,10.176,0,0,0-3.17-7.08,10.176,10.176,0,0,0-7.08-3.17ZM7.184,19.591a2.658,2.658,0,0,1,2.7,2.7v19.42a2.658,2.658,0,0,1-2.7,2.7,2.658,2.658,0,0,1-2.7-2.7V22.288A2.658,2.658,0,0,1,7.184,19.591Zm21.578,0h8.631a7.16,7.16,0,0,1,4.788,2.225A7.15,7.15,0,0,1,44.406,26.6v15.1a2.7,2.7,0,0,1-5.394,0V30.92a5.936,5.936,0,0,0-11.868,0V41.709a3.056,3.056,0,0,1-2.7,2.7,3.056,3.056,0,0,1-2.7-2.7V26.6a7.16,7.16,0,0,1,2.225-4.788A7.16,7.16,0,0,1,28.762,19.591Z" transform="translate(-1.25 -1.25)" fill="#fff"/>
</svg>
