<svg id="microphone" xmlns="http://www.w3.org/2000/svg" width="44.202" height="64.661" viewBox="0 0 44.202 64.661">
  <path id="Path-1" data-name="Path-1" d="M123.308,183a1.894,1.894,0,0,0-1.894,1.894v7.956a18.312,18.312,0,0,1-36.625,0v-7.956a1.894,1.894,0,1,0-3.789,0v7.956a22.13,22.13,0,0,0,20.207,22.019v5.892H90.472a1.894,1.894,0,1,0,0,3.789H115.73a1.894,1.894,0,1,0,0-3.789H105V214.87A22.13,22.13,0,0,0,125.2,192.851v-7.956A1.894,1.894,0,0,0,123.308,183Z" transform="translate(-81 -159.889)" fill="#fff"/>
  <path id="Path-2" data-name="Path-2" d="M155.524,47.486a14.54,14.54,0,0,0,14.524-14.524V14.524a14.524,14.524,0,0,0-29.047,0V32.962A14.54,14.54,0,0,0,155.524,47.486Zm7.325-29.426h3.41v3.789h-3.41a1.894,1.894,0,1,0,0,3.789h3.41v3.789h-3.41a1.894,1.894,0,0,0,0,3.789h3.4a10.731,10.731,0,0,1-21.457,0h3.4a1.894,1.894,0,0,0,0-3.789h-3.41V25.637h3.41a1.894,1.894,0,1,0,0-3.789h-3.41V18.06h3.41a1.894,1.894,0,0,0,0-3.789h-3.4a10.731,10.731,0,0,1,21.457,0h-3.4a1.894,1.894,0,0,0,0,3.789Z" transform="translate(-133.422)" fill="#fff"/>
</svg>
