<svg xmlns="http://www.w3.org/2000/svg" width="48.55" height="36.991" viewBox="0 0 48.55 36.991">
  <path id="twitter" d="M169.811,9.008a11.168,11.168,0,0,0-1.549.2c-4.205.847-7.719,4.355-8.4,10.062-6.231-.258-14.013-2.2-19.966-7.782a1.724,1.724,0,0,0-.869-.439,1.79,1.79,0,0,0-.98.09,1.675,1.675,0,0,0-.763.588,1.521,1.521,0,0,0-.282.887c0,5.4.541,11.382,2.668,16.233a14.33,14.33,0,0,0,6.762,7.223l-8.27,2.589a1.686,1.686,0,0,0-.8.532,1.5,1.5,0,0,0-.136,1.758,1.646,1.646,0,0,0,.71.635c9.236,4.34,14.308,4.408,18.826,4.408,11.966,0,18.844-6.919,22.4-13.592a37.673,37.673,0,0,0,4.081-13.031l2.222-6.252a1.5,1.5,0,0,0,.028-.925,1.572,1.572,0,0,0-.525-.783,1.751,1.751,0,0,0-.9-.375,1.792,1.792,0,0,0-.971.16L179.47,12.9A12.263,12.263,0,0,0,175.1,9.933,12.944,12.944,0,0,0,169.811,9.008Zm.4,3.154a9.547,9.547,0,0,1,4.326.814,8.948,8.948,0,0,1,3.4,2.638,1.69,1.69,0,0,0,.976.654,1.786,1.786,0,0,0,1.191-.117l.865-.4-.969,2.723a1.661,1.661,0,0,0-.083.366,35.8,35.8,0,0,1-3.775,12.137c-3.218,6.042-8.762,11.838-19.374,11.838a36.156,36.156,0,0,1-13-2.562l9.012-2.819a1.687,1.687,0,0,0,.918-.683,1.51,1.51,0,0,0,.224-1.078,1.568,1.568,0,0,0-.576-.957,1.758,1.758,0,0,0-1.1-.378c-4.964,0-7.62-2.541-9.444-6.7-1.429-3.254-1.961-7.44-2.182-11.6a36.2,36.2,0,0,0,20.657,6.639,1.756,1.756,0,0,0,1.2-.465,1.541,1.541,0,0,0,.495-1.123c0-5.827,2.756-8.127,6-8.78A8.214,8.214,0,0,1,170.206,12.162Z" transform="translate(-137 -9)" fill="#fff"/>
</svg>
