<svg xmlns="http://www.w3.org/2000/svg" width="48.801" height="37.276" viewBox="0 0 48.801 37.276">
  <g id="youtube" transform="translate(-432.341 -23.328)">
    <path id="Path-1" d="M180.858,10.714a6.682,6.682,0,0,1,3-.714h31.09a6.694,6.694,0,0,1,3,.714,7.159,7.159,0,0,1,2.434,2.009c1.222,1.681,2.067,2.661,2.473,4.709a50.743,50.743,0,0,1,.933,11.206,50.743,50.743,0,0,1-.933,11.206c-.407,2.048-1.247,3.027-2.469,4.709a7.193,7.193,0,0,1-2.437,2.009,6.693,6.693,0,0,1-3,.714h-31.09a6.694,6.694,0,0,1-3-.714,7.166,7.166,0,0,1-2.439-2.009c-1.222-1.682-2.064-2.662-2.469-4.71a50.744,50.744,0,0,1-.933-11.206,50.733,50.733,0,0,1,.933-11.205c.407-2.048,1.247-3.027,2.469-4.709A7.151,7.151,0,0,1,180.858,10.714Zm34.085,2.03H183.858c-1.278,0-2.983,1.508-3.71,2.43-.855,1.241-1.442,1.7-1.729,3.18a48.6,48.6,0,0,0-.835,10.284,48.6,48.6,0,0,0,.835,10.284,11.458,11.458,0,0,0,1.729,4.227,5.124,5.124,0,0,0,3.708,1.382h31.092c1.269,0,2.98-1.5,3.71-2.43.855-1.241,1.442-1.7,1.729-3.18a48.756,48.756,0,0,0,.835-10.284,48.756,48.756,0,0,0-.835-10.284c-.284-1.485-.874-1.94-1.729-3.18C217.931,14.252,216.219,12.744,214.943,12.744Z" transform="translate(257.341 13.328)" fill="#fff" fill-rule="evenodd"/>
    <path id="Path-2" d="M184.6,13.529a1.149,1.149,0,0,0-.459.1,1.2,1.2,0,0,0-.383.28,1.349,1.349,0,0,0-.348.9v13.8a1.386,1.386,0,0,0,.17.665,1.266,1.266,0,0,0,.466.476,1.138,1.138,0,0,0,1.239-.063l9.646-6.9a1.257,1.257,0,0,0,.4-.466,1.369,1.369,0,0,0,0-1.224,1.258,1.258,0,0,0-.4-.466l-9.646-6.9a1.151,1.151,0,0,0-.686-.214Z" transform="translate(268.647 20.512)" fill="#fff" fill-rule="evenodd"/>
  </g>
</svg>
